<mxfile host="app.diagrams.net" agent="Mozilla/5.0 (Windows NT 10.0; Win64; x64) AppleWebKit/537.36 (KHTML, like Gecko) Chrome/129.0.0.0 Safari/537.36" version="24.7.17">
  <diagram name="Page-1" id="YwtmpsAG7DsMYi-sNLwR">
    <mxGraphModel dx="1962" dy="973" grid="0" gridSize="10" guides="1" tooltips="1" connect="1" arrows="1" fold="1" page="0" pageScale="1" pageWidth="850" pageHeight="1100" math="0" shadow="0">
      <root>
        <mxCell id="0" />
        <mxCell id="1" parent="0" />
        <mxCell id="-KtTgiHFRDuKYYmR9kkt-1" value="Student" style="shape=umlActor;verticalLabelPosition=bottom;verticalAlign=top;html=1;outlineConnect=0;" parent="1" vertex="1">
          <mxGeometry x="40" y="130" width="30" height="60" as="geometry" />
        </mxCell>
        <mxCell id="-KtTgiHFRDuKYYmR9kkt-2" value="&lt;font style=&quot;font-size: 16px;&quot;&gt;Manage print operation&lt;/font&gt;" style="text;html=1;align=center;verticalAlign=middle;whiteSpace=wrap;rounded=0;" parent="1" vertex="1">
          <mxGeometry x="-180" y="130" width="180" height="30" as="geometry" />
        </mxCell>
        <mxCell id="-KtTgiHFRDuKYYmR9kkt-3" value="Print Management Module" style="rounded=0;whiteSpace=wrap;html=1;" parent="1" vertex="1">
          <mxGeometry x="690" y="130" width="120" height="60" as="geometry" />
        </mxCell>
        <mxCell id="-KtTgiHFRDuKYYmR9kkt-4" value="" style="endArrow=none;dashed=1;html=1;rounded=0;" parent="1" source="-KtTgiHFRDuKYYmR9kkt-49" target="-KtTgiHFRDuKYYmR9kkt-1" edge="1">
          <mxGeometry width="50" height="50" relative="1" as="geometry">
            <mxPoint x="55" y="760" as="sourcePoint" />
            <mxPoint x="50" y="220" as="targetPoint" />
          </mxGeometry>
        </mxCell>
        <mxCell id="-KtTgiHFRDuKYYmR9kkt-5" value="" style="endArrow=none;dashed=1;html=1;rounded=0;" parent="1" target="-KtTgiHFRDuKYYmR9kkt-3" edge="1">
          <mxGeometry width="50" height="50" relative="1" as="geometry">
            <mxPoint x="750" y="640" as="sourcePoint" />
            <mxPoint x="749.5" y="190" as="targetPoint" />
          </mxGeometry>
        </mxCell>
        <mxCell id="-KtTgiHFRDuKYYmR9kkt-9" value="" style="endArrow=classic;html=1;rounded=0;dashed=1;" parent="1" edge="1">
          <mxGeometry width="50" height="50" relative="1" as="geometry">
            <mxPoint x="752" y="283" as="sourcePoint" />
            <mxPoint x="62" y="283" as="targetPoint" />
          </mxGeometry>
        </mxCell>
        <mxCell id="-KtTgiHFRDuKYYmR9kkt-10" value="DisplayOptions&amp;nbsp;&lt;div&gt;(Print documet, View printing histoy)&lt;/div&gt;" style="edgeLabel;html=1;align=center;verticalAlign=middle;resizable=0;points=[];" parent="-KtTgiHFRDuKYYmR9kkt-9" vertex="1" connectable="0">
          <mxGeometry x="0.0973" y="1" relative="1" as="geometry">
            <mxPoint x="-2" y="19" as="offset" />
          </mxGeometry>
        </mxCell>
        <mxCell id="-KtTgiHFRDuKYYmR9kkt-11" value="View Printing History Module" style="rounded=0;whiteSpace=wrap;html=1;" parent="1" vertex="1">
          <mxGeometry x="450" y="130" width="120" height="60" as="geometry" />
        </mxCell>
        <mxCell id="-KtTgiHFRDuKYYmR9kkt-12" value="" style="endArrow=none;dashed=1;html=1;rounded=0;" parent="1" target="-KtTgiHFRDuKYYmR9kkt-11" edge="1">
          <mxGeometry width="50" height="50" relative="1" as="geometry">
            <mxPoint x="510" y="640" as="sourcePoint" />
            <mxPoint x="509.5" y="185" as="targetPoint" />
          </mxGeometry>
        </mxCell>
        <mxCell id="-KtTgiHFRDuKYYmR9kkt-13" value="Document Printing Module" style="rounded=0;whiteSpace=wrap;html=1;" parent="1" vertex="1">
          <mxGeometry x="220" y="130" width="120" height="60" as="geometry" />
        </mxCell>
        <mxCell id="-KtTgiHFRDuKYYmR9kkt-14" value="" style="endArrow=none;dashed=1;html=1;rounded=0;" parent="1" target="-KtTgiHFRDuKYYmR9kkt-13" edge="1">
          <mxGeometry width="50" height="50" relative="1" as="geometry">
            <mxPoint x="280" y="640" as="sourcePoint" />
            <mxPoint x="279.5" y="185" as="targetPoint" />
          </mxGeometry>
        </mxCell>
        <mxCell id="-KtTgiHFRDuKYYmR9kkt-21" value="alt" style="shape=umlFrame;whiteSpace=wrap;html=1;pointerEvents=0;" parent="1" vertex="1">
          <mxGeometry x="-60" y="360" width="850" height="230" as="geometry" />
        </mxCell>
        <mxCell id="-KtTgiHFRDuKYYmR9kkt-22" value="" style="endArrow=none;dashed=1;html=1;rounded=0;entryX=1.001;entryY=0.533;entryDx=0;entryDy=0;entryPerimeter=0;" parent="1" target="-KtTgiHFRDuKYYmR9kkt-21" edge="1">
          <mxGeometry width="50" height="50" relative="1" as="geometry">
            <mxPoint x="-60" y="482" as="sourcePoint" />
            <mxPoint x="780.0000000000005" y="481.95000000000005" as="targetPoint" />
          </mxGeometry>
        </mxCell>
        <mxCell id="-KtTgiHFRDuKYYmR9kkt-35" value="[print document]" style="text;html=1;align=center;verticalAlign=middle;resizable=0;points=[];autosize=1;strokeColor=none;fillColor=none;" parent="1" vertex="1">
          <mxGeometry x="-60" y="390" width="110" height="30" as="geometry" />
        </mxCell>
        <mxCell id="-KtTgiHFRDuKYYmR9kkt-36" value="[view history]" style="text;html=1;align=center;verticalAlign=middle;resizable=0;points=[];autosize=1;strokeColor=none;fillColor=none;" parent="1" vertex="1">
          <mxGeometry x="-50" y="490" width="90" height="30" as="geometry" />
        </mxCell>
        <mxCell id="-KtTgiHFRDuKYYmR9kkt-42" value="" style="endArrow=classic;html=1;rounded=0;" parent="1" edge="1">
          <mxGeometry width="50" height="50" relative="1" as="geometry">
            <mxPoint x="60" y="400" as="sourcePoint" />
            <mxPoint x="270" y="400" as="targetPoint" />
          </mxGeometry>
        </mxCell>
        <mxCell id="-KtTgiHFRDuKYYmR9kkt-43" value="Print(Document)" style="edgeLabel;html=1;align=center;verticalAlign=middle;resizable=0;points=[];" parent="-KtTgiHFRDuKYYmR9kkt-42" vertex="1" connectable="0">
          <mxGeometry x="-0.0242" y="-1" relative="1" as="geometry">
            <mxPoint y="-11" as="offset" />
          </mxGeometry>
        </mxCell>
        <mxCell id="-KtTgiHFRDuKYYmR9kkt-44" value="" style="endArrow=classic;html=1;rounded=0;dashed=1;" parent="1" target="-KtTgiHFRDuKYYmR9kkt-49" edge="1">
          <mxGeometry width="50" height="50" relative="1" as="geometry">
            <mxPoint x="280" y="430" as="sourcePoint" />
            <mxPoint x="50" y="430" as="targetPoint" />
          </mxGeometry>
        </mxCell>
        <mxCell id="-KtTgiHFRDuKYYmR9kkt-45" value="Message" style="edgeLabel;html=1;align=center;verticalAlign=middle;resizable=0;points=[];" parent="-KtTgiHFRDuKYYmR9kkt-44" vertex="1" connectable="0">
          <mxGeometry x="0.0159" y="1" relative="1" as="geometry">
            <mxPoint y="-6" as="offset" />
          </mxGeometry>
        </mxCell>
        <mxCell id="-KtTgiHFRDuKYYmR9kkt-46" value="" style="endArrow=classic;html=1;rounded=0;dashed=1;" parent="1" edge="1">
          <mxGeometry width="50" height="50" relative="1" as="geometry">
            <mxPoint x="510" y="540" as="sourcePoint" />
            <mxPoint x="60" y="540" as="targetPoint" />
          </mxGeometry>
        </mxCell>
        <mxCell id="-KtTgiHFRDuKYYmR9kkt-47" value="Display history" style="edgeLabel;html=1;align=center;verticalAlign=middle;resizable=0;points=[];" parent="-KtTgiHFRDuKYYmR9kkt-46" vertex="1" connectable="0">
          <mxGeometry x="0.0159" y="1" relative="1" as="geometry">
            <mxPoint x="2" y="-11" as="offset" />
          </mxGeometry>
        </mxCell>
        <mxCell id="-KtTgiHFRDuKYYmR9kkt-50" value="" style="endArrow=none;dashed=1;html=1;rounded=0;" parent="1" target="-KtTgiHFRDuKYYmR9kkt-49" edge="1">
          <mxGeometry width="50" height="50" relative="1" as="geometry">
            <mxPoint x="55" y="640" as="sourcePoint" />
            <mxPoint x="55" y="210" as="targetPoint" />
          </mxGeometry>
        </mxCell>
        <mxCell id="-KtTgiHFRDuKYYmR9kkt-49" value="" style="html=1;points=[[0,0,0,0,5],[0,1,0,0,-5],[1,0,0,0,5],[1,1,0,0,-5]];perimeter=orthogonalPerimeter;outlineConnect=0;targetShapes=umlLifeline;portConstraint=eastwest;newEdgeStyle={&quot;curved&quot;:0,&quot;rounded&quot;:0};" parent="1" vertex="1">
          <mxGeometry x="50" y="240" width="10" height="340" as="geometry" />
        </mxCell>
        <mxCell id="-KtTgiHFRDuKYYmR9kkt-51" value="" style="html=1;points=[[0,0,0,0,5],[0,1,0,0,-5],[1,0,0,0,5],[1,1,0,0,-5]];perimeter=orthogonalPerimeter;outlineConnect=0;targetShapes=umlLifeline;portConstraint=eastwest;newEdgeStyle={&quot;curved&quot;:0,&quot;rounded&quot;:0};" parent="1" vertex="1">
          <mxGeometry x="745" y="250" width="10" height="50" as="geometry" />
        </mxCell>
        <mxCell id="-KtTgiHFRDuKYYmR9kkt-52" value="" style="html=1;points=[[0,0,0,0,5],[0,1,0,0,-5],[1,0,0,0,5],[1,1,0,0,-5]];perimeter=orthogonalPerimeter;outlineConnect=0;targetShapes=umlLifeline;portConstraint=eastwest;newEdgeStyle={&quot;curved&quot;:0,&quot;rounded&quot;:0};" parent="1" vertex="1">
          <mxGeometry x="275" y="380" width="10" height="80" as="geometry" />
        </mxCell>
        <mxCell id="-KtTgiHFRDuKYYmR9kkt-53" value="" style="html=1;points=[[0,0,0,0,5],[0,1,0,0,-5],[1,0,0,0,5],[1,1,0,0,-5]];perimeter=orthogonalPerimeter;outlineConnect=0;targetShapes=umlLifeline;portConstraint=eastwest;newEdgeStyle={&quot;curved&quot;:0,&quot;rounded&quot;:0};" parent="1" vertex="1">
          <mxGeometry x="505" y="490" width="10" height="80" as="geometry" />
        </mxCell>
        <mxCell id="-KtTgiHFRDuKYYmR9kkt-54" value="" style="endArrow=classic;html=1;rounded=0;" parent="1" edge="1">
          <mxGeometry width="50" height="50" relative="1" as="geometry">
            <mxPoint x="60" y="510" as="sourcePoint" />
            <mxPoint x="505" y="510" as="targetPoint" />
          </mxGeometry>
        </mxCell>
        <mxCell id="-KtTgiHFRDuKYYmR9kkt-55" value="requestHistory()" style="edgeLabel;html=1;align=center;verticalAlign=middle;resizable=0;points=[];" parent="-KtTgiHFRDuKYYmR9kkt-54" vertex="1" connectable="0">
          <mxGeometry x="-0.0242" y="-1" relative="1" as="geometry">
            <mxPoint y="-11" as="offset" />
          </mxGeometry>
        </mxCell>
        <mxCell id="-KtTgiHFRDuKYYmR9kkt-61" value="loop" style="shape=umlFrame;whiteSpace=wrap;html=1;pointerEvents=0;" parent="1" vertex="1">
          <mxGeometry x="-110" y="230" width="920" height="390" as="geometry" />
        </mxCell>
        <mxCell id="-KtTgiHFRDuKYYmR9kkt-62" value="[!userLogout()]" style="text;html=1;align=center;verticalAlign=middle;resizable=0;points=[];autosize=1;strokeColor=none;fillColor=none;" parent="1" vertex="1">
          <mxGeometry x="-110" y="265" width="100" height="30" as="geometry" />
        </mxCell>
        <mxCell id="PI2jbSSi9i0he8VRpRju-1" value="" style="endArrow=classic;html=1;rounded=0;" parent="1" target="-KtTgiHFRDuKYYmR9kkt-51" edge="1">
          <mxGeometry width="50" height="50" relative="1" as="geometry">
            <mxPoint x="60" y="257" as="sourcePoint" />
            <mxPoint x="270" y="257" as="targetPoint" />
          </mxGeometry>
        </mxCell>
        <mxCell id="PI2jbSSi9i0he8VRpRju-2" value="Render()" style="edgeLabel;html=1;align=center;verticalAlign=middle;resizable=0;points=[];" parent="PI2jbSSi9i0he8VRpRju-1" vertex="1" connectable="0">
          <mxGeometry x="-0.0242" y="-1" relative="1" as="geometry">
            <mxPoint y="-11" as="offset" />
          </mxGeometry>
        </mxCell>
      </root>
    </mxGraphModel>
  </diagram>
</mxfile>
